<svg xmlns="http://www.w3.org/2000/svg" xmlns:xlink="http://www.w3.org/1999/xlink" viewBox="0 0 576 288">
  <g id="inside" style="isolation: isolate">
    <path d="M181.92,93.6c-4.08.32-4.54,3.48-7.2,5-5.55,3.25-12.22,5.19-19.2,7H151.2c-6.81,0-9.88-.91-14.16-3.12-1-.53-2.13-.4-3.12-1-2.29-1.31-5.12-4.74-8.16-5-1,1-1.8.86-3.36.72-.68-1-2-1.64-2.64-2.64-.56-.83-.47-1.71-1-2.64a42.59,42.59,0,0,0-7-9.36c-.11-7.69.34-15.8,1.92-22.08,1.06-4.21.89-8.52,2.64-12,1.07-2.13,5.35-6.26,7.44-7.44,1-.56,2.06-.46,3.12-1a24.49,24.49,0,0,1,15.12-1.68A51.3,51.3,0,0,1,150.72,41c7.5,3.36,8.33,6.92,10.8,15.12,1,3.22,2.3,11.36,5.52,11.76,1.63-1.62,7.74-3.78,8.64-5.28,1.39-1.62,1.78-5.65,2.64-7.92.38-1,2.23-2.07,2.4-3.12.1-.65-.56-1.37-.24-2.64.07-.26.6-.43.48-1,0-.18-.89-.77-1-1V38.4c0-5,1.32-9.87,2.4-13.92.8-3,.75-5.78,2.16-8.16,3.65-6.15,20-5.82,26.16-2.16,1.95,1.16,5.48,4.46,6.48,6.48,2,4,2.12,11.19,4.8,14.4l2.4,1.2c1.08.95,1.81,2.4,2.88,3.36.7.63,1.71.81,2.4,1.44s.89,1.37,1.44,1.92c1.36,1.36,2.95,2.49,4.32,3.84.22.22.25.76.48,1,1.18,1,3.15,1.11,4.56,1.92.5.29,1.13,1.17,1.68,1.44,2.55,1.27,6,.84,8.88,1.92,1.19.45,2.22,1.78,3.36,2.16.83.27,1.82-.13,2.4.24h-.48c-.94.8-1.6.36-1.68,2.16.23.46-.06,1.18-.24,1.92a13.53,13.53,0,0,1,2.88.24,5.89,5.89,0,0,0,1,1.2c0,1.7.68,4.49.24,5.28-.59,1.84-4.77,5.78-7,6-1.73-2.33-4.36-3.34-6.48-5.28-1.52-1.39-2.78-3.44-4.32-4.8-.79-.69-2.09-.75-2.88-1.44-1.37-1.2-2.48-3.11-3.84-4.32-.7-.63-1.71-.81-2.4-1.44s-.87-1.42-1.44-1.92c-1.29-1.12-4-.74-5.28-1.92-1-.95-1-2.81-1.92-3.84-1.27-1.41-3.39-2.07-4.8-3.36-2.5-2.28-7.54-7.86-11.76-7.92l-1.92.72c-1.19.73-2.24,2.06-3.36,2.88-.37.27-.86.18-1.2.48s-.57,1.05-1,1.44c-1.49,1.49-3.19,3-4.8,4.32-1.23,1-2.85,1.39-4.08,2.4-.46.37-.34,1.21-.72,1.68s-1.21.34-1.68.72c-.85.68-1,2.2-1.92,2.88s-2.28,1.08-3.12,1.92c-2.47,2.48-1.17,9.71-6,9.84-.25-.19-.07-.09-.48-.24V73c2.56,2.47,1.56,5.51,2.64,9.12h-.24c-.75-.64-2-.64-2.88-1.2-1.38-.89-2.48-2.54-3.84-3.36l-1.44-.24c-.66-.28-1.26-1.17-1.92-1.44l-1.92-.24c-1.71-.75-3-2.59-4.8-3.12-3.44-1-8.29.33-11.52-1-1.28-.51-2.21-2-3.36-2.64s-6.62-.65-7.68,0c-2.42.8-4.07,3.86-5.76,5.52-.06,3.47-.48,6.84-.48,10.8v3.12c.19.56.92,1,1.2,1.44.77,1.2.9,2.66,1.68,3.84,1.08,1.63,6.27,5.53,8.16,6.24,2.16.82,5.56.48,8.4.48,10.18,0,15.39-2.58,21.84-6,2.7-1.43,6.82-3.33,7.68-6.48h.24v2.4C182.62,91,182,92.34,181.92,93.6Z" fill="none" fill-rule="evenodd"/>
  </g>
  <g id="front-right" style="isolation: isolate">
    <path d="M296.64,179.52H299c.17-2.3,1.64-4.63,4.8-3.84,2.18.54,4.36,1.8,6.24,2.4h3.36c.72.19,1.67.78,2.4,1h12c1.85.5,3.12,2.11,5.28,2.4a6.31,6.31,0,0,1,6.24-1.92c.06-1.14.27-1.45,1-1.92a11.48,11.48,0,0,1,5.28-1.44v-1c2.06-1.23,4.26-2,6.24-3.36,1-.65,1.88-2.11,2.88-2.64s1.87-.28,2.64-1a80.67,80.67,0,0,1,9.12-6.72c.95-.62.67-2.55,1.44-3.36a15.68,15.68,0,0,1,5-3.12c2.06-.63,3.37,1.29,4.32,1.92.64.43,1.23.31,1.92.72,1.85,1.08,3.66,3,5.76,3.84.89.35,1.56,0,2.4.48s1.68,1.87,2.64,2.4,1.7.47,2.64,1c2,1,4.09,2.36,6,3.36,4.49,2.35,9,3.63,13.68,5.76,2.58,1.17,7.93,5.15,10.8,5.28,4.85,3.07,2.45,8.16-2.16,12.48-20.09,12.34-49.58,9.53-49.2,8.88s-21.51-3-31-3.6c-5.59-.36-17.46,6.62-19.92,7.68-7.49,3.22-15.43-.51-15.84-1.2-.74-2.26-3.34-3.61-4.32-5.76-1.45-3.21-1.23-7.19-2.16-11v-3.84C298,181.76,296.71,182.17,296.64,179.52Z" fill="none" fill-rule="evenodd"/>
  </g>
  <g id="front-left" style="isolation: isolate">
    <path d="M438.24,117.12c8.31-.19,17.61,8.11,12.48,5a33.25,33.25,0,0,1,4.8,1.68c3.61,1.18,10.24,2.84,8.88,2.16a38.06,38.06,0,0,0,6,2.16c2.9,1.56,6.54,2.68,8.88,3.84a57.18,57.18,0,0,1,6.72,3.36c2.23,1,1,1.29,2.64,2.88-1.24,4.57-2.49,4.79-6.72,6.48-1.76.7-6.8,3.53-8.64,4.32,1.37-.11-5.52,2-10.08,3.12.61,0-9.68.48-15.36.48-2.62,0-11,.85-12.48.48s-25.8.2-36.48-2.4c-2.78-.68-5.89.44-8.16-.48-1-.39-5.91-5.29-6.24-6.24v-2.4c-.31-.9-1.61-1.5-1.92-2.4-.55-1.59,0-5,.24-6.24a5.89,5.89,0,0,0,1.2-1,30.32,30.32,0,0,1,7.2,1H396c1.62.38,5.36,1,7.68.48,1.65-.41,3.42-1.19,4.8-1.68l2.4-.24c2.87-1,5.63-3.51,8.16-5,.87-.53,1.81-.29,2.88-.72.76-.31,1.27-1.26,1.92-1.68s1.56-.43,2.16-1c.93-.82,1.59-2.17,2.64-2.88.46-.31,3.59-2.07,3.84-2.16C434.87,117.26,436.73,118.56,438.24,117.12Z" fill="none" fill-rule="evenodd"/>
  </g>
  <g id="laces-right" style="isolation: isolate">
    <path d="M324.48,130.08a6.36,6.36,0,0,1,.24-2.88,4.41,4.41,0,0,1,4.08-3.12c.88.82,2.23,1.11,3.12,1.92s1.36,1.86,2.16,2.64c0,2.26-.94,4.87-.48,6.72.23.9.73,1.83,1,2.88-1.14.06-1.6.33-1.92,1.2-.18.26-.14.23-.24.72,1.75.16,4.29,2.22,6,1.2a32.76,32.76,0,0,0,5-3.84c.54-.62.49-1.69,1-2.4,1.05,1.22,2.94.73,4.56,1.44,2.54,1.12,4.39,3.23,6.24,5v1c-.62.58-1.17,1.78-1.92,2.16-1.14.59-2.25.2-3.12,1-.23.2-.26.74-.48,1-.83.81-2,1.14-2.88,1.92-.6.53-1,1.46-1.68,1.92-1.07.74-2.26,1-3.36,1.68-2.73,1.8-5.48,4.07-8.16,6-2,1.46-5.92,2.43-6.24,5.52-5.78.55-6.89,7.6-14.4,5.76-.86-.21-1.82.12-2.4-.24,2-1.22-2.26-4.81-.72-7.44.39-1.23,2.66-3.44,3.6-4.32a5.07,5.07,0,0,0-.24-2.4,4.41,4.41,0,0,0-4.08-3.12c-.94.84-2.46.49-3.84,1-3,1-8.53,2-11.52,0-1.32-.88-2.24-2.49-3.36-3.6v-1.44c1.18-1.11,2.13-2.81,3.84-3.36h3.84c3.34-1,5.09-1.54,7.2-3.84a15.83,15.83,0,0,1,1.68.72c1.19.38,1.92-.53,2.64-.72,3.07-.79,6.23.86,7.44-1.68.18-.26.14-.23.24-.72-.76-.52-1-1.32-1.92-1.68-1-.59-2.11.09-2.88.24-1.29.25-1.93-.81-3.36-.48-1.77.41-2.9,1.92-4.32,2.4-2.52.86-5.28-.59-6.72-1a5.69,5.69,0,0,1-1.92,1.92c-1.14.4-1.76-.64-2.64,0s-.88,2.08-1.68,2.64c-2.08,1.45-4.52,2-6.72,3.36-.82.5-1.29,1.38-2.4,1.68-1.91.52-3.32-.78-4.8-.48-1.77.35-3.28,1.18-5.76,1.2-2.15-3-5.8-3.15-4.56-9.36a20.17,20.17,0,0,1,5-1.92h2.88c.66-.23,1.27-1.18,1.92-1.44a29.49,29.49,0,0,1,3.84-1h4.32c2.18-.64,4.12-2.66,6.24-3.36h1.92c3.64-1.09,7.14-3.51,7.2-8.16-4,0-6.08-.27-9.12.48-3.59.88-9-.37-12.48.48h-3.84a7.24,7.24,0,0,1-1.92.48h-2.4c-.82.31-1.05,1.62-1.92,1.92-1.65.56-3.42-.84-5.52-.48-1.25.21-2.09.83-3.6,1-1-1-2.84-1.22-3.6-2.4l-.24-1.44a12.36,12.36,0,0,0-1.68-1.92c.75-3.75,3.66-5.95,6-8.16,2.77,0,4.68,2.86,6.24,2.16,1.39-.25,1.81-1.32,2.88-1.68,3.1-1.06,6.69,1.77,9.12.24,2.24-.71,4.34-4,4.32-7h-2.4c-.23-.09-.73-.87-1-1-1.87-.73-8.28.16-9.6.48h-7.68c-3,.74-6.62.56-9.6,1.44-1.51.45-2.89,1.93-4.32,2.4h-1.92c-.54.18-1,1-1.44,1.2-1.47.74-2.67.7-4.08,1.44s-2,1.94-4.08,2.16c-1.78-1.21-3.77-1.26-5.52-1.92a6.69,6.69,0,0,0-1-1.44c-.16-3,1-2.81,1.68-4.8v-2.4c.67-1.81,3.22-2.13,4.8-3.12,1.26-.79,1.41-2.2,3.36-2.4,2.92,2.9,5.77-.61,8.64-1.2l2.4.48c.54-.12,1-1,1.44-1.2,1.15-.55,2,.12,2.88.24.46.06,1.14-.41,1.44-.48h5.28c2.42-.81,4.1-3.16,5.76-4.8v-2.4H265c-.72-.23-1.18-1.18-2.4-1-1.41.26-2.25,1.54-3.36,1.92h-2.4c-1.51.37-4.73.6-6.24,1h-3.84c-1.72.41-4.26,1.07-5.76,1.44H235.2c-1,.31-2.34,1.59-4.32,1-.39-.12-1-.84-1.44-1H225.6c-1.42-.36-5.18-1.13-5.76-2.4V86.88h.24c1.51-4.42,11.58-6.25,18-6.24,1.44-2.11,6.66-5.37,9.12-6.48,1.92-.87,3.64-.88,5.28-1.92,3-1.92,5.33-4.83,7.92-7.2.93-.85,2.25-1.26,3.12-2.16a3.79,3.79,0,0,1,1.92.24c2.61.87,3.94,4.23,5.76,6-.1,3-1.69,2.16-3.12,3.6-.71.72-.44,1.65-1,2.64-.91,1.72-3.53,2-3.84,4.32.78.34,2.2.25,3.12.72,2.11,1.06,2.49,4.09,5.52,4.32,1.71-2.21,4.07-4,6-6h1.44c1.87,1.89,6.93,4.68,7.2,7.68-2,1.9-6.27,5.27-6.48,8.64l2.4,1.2c1.76,1.55,3.19,4.94,6,5.28.33-.47.85-.56,1.2-1,1.58-1.78,2.12-5.93,5-6.24.28-.19.4-.19,1-.24,1.29,1.28,7.93,6.1,6,9.12-.48,1.4-1.55,1.68-2.4,2.64s-.73,2.36-1.44,3.6c-.41.72-1.27,1.06-1,1.92.6,1.39,1.14.44,2.64,1,1.78.62,3,2.73,5,3.12l1.2-2.4,2.16-.48a17.44,17.44,0,0,0,3.6-3.12,5.07,5.07,0,0,1,2.4.24c2.57.85,4.42,4.22,6.24,6,0,4.81-3.38,5.15-4.08,9.12,2.27,1.55,3.24,4.69,5,6.72C322.53,131.13,322.79,130.26,324.48,130.08Z" fill="none" fill-rule="evenodd"/>
  </g>
  <g id="laces-left" style="isolation: isolate">
    <path d="M403.2,118.56a2.56,2.56,0,0,0-1.44.24c-1,.33-5.38,4.13-6.24,5a25.85,25.85,0,0,1-4.8-.24c-2.53-4.1-.68-7-1.68-12.24-.85-.52-1.68-1.61-2.64-1.92H383c-4.41,0-11.83.93-13.2-2.16a5.36,5.36,0,0,1,0-3.6A7.85,7.85,0,0,1,372,100.8a34.73,34.73,0,0,0-.24-6.24,5.89,5.89,0,0,1-1.2-1c-2.79,0-5.21,0-7.2.72-1.06.41-2.11,1.37-3.36,1.68-1.5.38-6.18.38-7.2-.24-.92-.28-1.11-.53-1.2-1.68-1.44-2.32,1.67-4.23.48-6.24-1.59-4.75-11-3.53-16.56-4.56a5.89,5.89,0,0,0-1-1.2A31.82,31.82,0,0,1,336,72c.4-1.51-.48-3-.48-4.8-2.06,0-2.66.57-3.84,1l-4.8.48c-.65.23-1.27,1.22-1.92,1.44H321.6l-4.32,3.36c-3.18.08-3.78-.94-5.28-2.4a13,13,0,0,1,.48-4.8c1.12-2.78,3.1-2.12,2.16-7.2a5.89,5.89,0,0,1-1.2-1c-4.16,0-8.25.53-12.48.24-1.13-1.65-3.12-2.49-3.36-5,.34-.32.39-.88.72-1.2,1-1,4.05-1.32,5.52-1.68h5.76c.65-.23,1.27-1.21,1.92-1.44l3.12-.24c.76-.38,1.46-1.55,2.16-1.92,1.82-.95,4.56-1.15,5.28-3.12a.7.7,0,0,1,0-1c.63.58,1,.42,1.92.24a53.49,53.49,0,0,1,7.2-9.6h1.68c1.16,1.23,2.9,2.18,3.84,3.6.67,1,.29,2.69,1,3.84s1.88,1.48,2.4,2.64h-.24a3,3,0,0,0-3.84.48c-2.17,2.67,2,10,3.36,10.56a2.65,2.65,0,0,0,1.44.24c.82-.87,2.09-1.53,2.64-2.64.78-1.57.21-3.37,1.2-4.56.67.59,2.72.66,3.84.72.55.84,1.66,1.34,2.16,2.16,1.15,1.88,2,4.13,3.6,5.52-.15.42-.05.23-.24.48-.38.82-.93.85-1.44,1.44-1.43,1.64-1.27,5.18-.72,7.44.27,1.11-.26,2.57.24,3.36.38,1.26,2.54,3.94,4.08,4.08l.24-.72c.36-.58,0-1.58.24-2.4s1.61-1.5,1.92-2.4v-7H359c1.21,1.68,4.51,2.93,6,4.56l.48,1.44a17.42,17.42,0,0,0,2.16,2.4V73c.12.51.63,1.09.48,1.92s-1,3.14-.24,4.32c.8,2.42,3.86,4.07,5.52,5.76,2.8-.11,6.7-4.25,10.08-2.16,1.41.45,2.73,2.07,3.6,3.12-2.08,1.77-.33,3.93-1.2,6.72-.31,1-.91,1.27-1,2.88.49.48.72,1.19,1.2,1.68s1.53,1,2.16,1.68c.42-.15.23,0,.48-.24.6-.46,2.15-4.26,2.4-5,.53-1.62-.09-3.31.72-4.56.59,1.2,1.94,1.1,2.88,1.92,1.25,1.1,2.13,2.72,3.36,3.84.44.4,1.2.36,1.44,1,1,2.58-.84,6.16,1.68,7.2a2.65,2.65,0,0,0,1.44.24c.6-.65,1.58-1,2.16-1.68s.22-1.47.72-2.16c.22-.3.52-.13,1-.24,1.4,1.27,3.36.51,5.28,1.44,1.31.64,2.35,2.13,3.36,3.12a21.53,21.53,0,0,1-1,7.2c-.65-.6-.66-.86-1.92-1-.63.52-1.53.67-2.16,1.2-.41.35-.74,1.16-1.2,1.44-1.06.63-2.24.66-3.12,1.44s-1.68,2.19-2.64,3.12Z" fill="none" fill-rule="evenodd"/>
  </g>
  <g id="pad" style="isolation: isolate">
    <path d="M432,179.52c5.91,0,11.95.21,16.8-1h9.36c2.12-.13,5.64-1.14,8.4-.48,1.54.37,3.68,1.06,5.28,1.44,2.54.61,4.4-1.15,7.2-.48,1.32.31,4.24,1,6.24.48,2.25-.55,4.74-1.42,6.72-1.92h2.4c.75-.26,1.29-1.37,1.92-1.68,2.46-1.23,6.58.18,9.12-.72,1.17-.42,1.93-1.95,2.88-2.64,2.41-1.76,7-4.94,8.4-7.44.52-.91-.1-2.4.24-3.6.15-.53.81-1.15,1-1.68a30.62,30.62,0,0,0,.24-3.36,2.66,2.66,0,0,0,.72-.48c.42.15.23.05.48.24,3.15,1,5.64,6.36,7.92,8.64,1.12,1.12,2.65,1.57,2.88,3.6-1.7,1-4.89,2.44-6,4.08-1.69,2.26.3,7.66-.48,10.8-1.31,5.29-5.37,9.51-8.88,12.72-6.88,6.29-21.44,11.43-31.92,14.16h-2.4c-3.52.87-8.32,1-12,1.92-1.47.36-3.43-.42-4.56.24-.85.49-.75,2.23-1.2,3.12s-1.62,2-1.92,2.88c-.56,1.68.7,2.84,1,3.84.63,2.45-.08,11.47-.72,13-4,9.29-12.46,15.54-20.88,20.4-1.63.94-3.29,1-5,1.92a149.13,149.13,0,0,1-15.6,6.24l-4.32.72c-5.33,1.43-11.82,2.49-17.28,3.84h-3.36c-2.54.62-6.18.84-8.64,1.44h-5.28c-3.26.79-8.39-.39-12,.48a29.06,29.06,0,0,1-10.56,0c-2.21-.49-5.18,1.05-6.72,1.44-2.08.53-5.32-.14-6.72-.48H338.4c-.37-.12-1.07-.88-1.44-1s-1.17.42-1.44.48h-11c-1.24-.3-4.53-.06-5.76-.48-.46-.16-1-1.06-1.44-1.2-1.33-.44-2.75,1.23-4.8.72-3-.73-7.59-1.16-10.56-1.92H300c-.39-.13-1-.83-1.44-1-2.16-.69-5.86.1-8.16-.48-1.6-.4-3.85-1.08-5.28-1.44l-3.84-.24c-.29-.14-.59-.83-1-1-1.92-.67-5.16-.17-7.2-.72a77.47,77.47,0,0,1-8.16-2.16c-.78-.31-1.63-1.5-2.4-1.68l-2.4.48a53.37,53.37,0,0,1-6.24-2.16l-3.36-.48c-1-.5-2.24-2-3.36-2.4-.53-.18-1.29.22-1.44.24a8,8,0,0,1-2.88-.72c-1.12-.49-2.67-1.48-3.84-1.92s-2.29-.35-3.36-1-1.67-1.84-3.12-2.16c-1.16,1.13-3.68-1.12-4.8-1.68L225.6,247a29,29,0,0,1-4.08-1.92c-.46-.32-1-1.18-1.44-1.44l-2.16-.24c-3.1-1.09-6.4-2.79-9.6-4.08-1.86-.75-2-2.89-4.32-3.12-1.46,1.26-2.72-.52-3.84-1-2.17-.84-4.42-.94-6.24-2.16-1.37-.92-1.76-2.92-3.6-3.36a9.07,9.07,0,0,1-1.2,1.2c-3.55-.68-7.33-3.09-10.32-4.56-1.77-.87-4.18-.63-6-1.44-1.36-.61-2.86-1.86-4.32-2.4L165.6,222c-.42-.21-.9-1-1.44-1.2h-1.92c-.93-.32-1.93-1.32-2.88-1.68-2.06-.79-3.73-.89-5.76-1.68-1.15-.45-2.08-1.65-3.12-2.16-2.13-1.05-5.16-.81-7.44-1.68-2.1-.8-4.56-2.3-6.72-3.12-1.69-.64-3.07-.54-4.8-1.2-.79-.3-1.57-1.15-2.4-1.44l-1.92-.24c-.8-.39-1.78-1.49-2.64-1.92-1.55-.77-2.76-.57-4.56-1.2-1.26-.44-2.6-1.67-3.84-2.16h-1a21.41,21.41,0,0,1-5-3.36c-1-.79-2.55-.74-3.6-1.44a17.1,17.1,0,0,1-2.16-2.4c-1.83-1.83-4-3.38-5.76-5.28-.63-.69-.81-1.69-1.44-2.4s-1.48-1-1.92-1.68c-1.4-2.11-1.2-9.19-1.2-12.72A50.49,50.49,0,0,1,96,159.12V155c.51-2.07.92-5.08,1.44-7.2.65-2.66-.78-5.34.24-7.2.25-.46,1.1-.8,1.44-1.2.9-1.05.57-1.95,2.4-2.16.93,1.08,2.68,2.12,3.36,3.36.59,1.08,0,1.94.24,2.88.33,1.17,4.5,5.58,5.52,6.48,2,1.73,5.1,2.45,7.44,3.84l.72,1c1.23.87,2.88,1.65,4.08,2.4,1.53,1,3.63,1.06,5.28,1.92.77.41,1.61,1.4,2.4,1.68l2.88.24c1.56.59,3.3,2,4.8,2.64,3.9,1.56,7.69,3.35,11.28,5l2.64.24c1.13.38,2.71,1.53,3.84,1.92h1.44c.9.34,1.5,1.58,2.4,1.92h1.44c1.41.5,3,1.88,4.32,2.4l1.92.24c.56.28,1.25,1.16,1.92,1.44h1c2.35,1.19,4.59,3.51,7,4.8,5.33,2.9,10.13,6.38,15.36,9.12,2.23,1.17,4.26,1.72,6.48,2.88,1.63.85,3.55,2.17,5.28,2.88h1c1.29.68,1.2,2.14,3.12,2.4a1.48,1.48,0,0,1,1.68-.48c2.19.53,4.36,2.19,6.24,3.12.81.4,1.63.28,2.4.72.58.33,1.22,1.15,1.92,1.44s1.22.08,1.92.48c1.31.75,2.76,2.17,4.08,2.88.93.5,1.8.41,2.64,1,2.61,1.7,5.19,4.32,7.92,5.76,1.52.8,2.94.77,4.56,1.44s3.2,2.23,4.8,2.88c1.39.56,3.31.23,4.8,1,.42.2.92,1,1.44,1.2,1.3.5,2.56.16,3.84.72a19.67,19.67,0,0,0,1.92,1.2L264,223c2.62.93,5.78,1.87,8.64,2.64,1.74.47,3.4-.13,5.28.48.4.13,1,.81,1.44,1,1.48.56,3.07-.08,4.8.48,1.5.49,4.09,1.49,5.76,1.92,2.25.58,3.92-.1,6.24.48,4.3,1.07,9.91,1.59,13.92,2.88h6.24c4.85,1.19,12.5.74,17.28,1.92h36c2.46-.61,6.6.26,9.6-.48a37.7,37.7,0,0,1,7.68-.48h15.36a18.17,18.17,0,0,1,4.32-.48h12c3.23-.83,6.6-2.06,9.6-3.12l2.88-.24c1.57-.57,2.52-2.69,3.84-3.6,1.84-1.27,4.29-1.63,6.24-2.88,1.1-.71,1.78-2.17,2.88-2.88,1.44-.93,3.29-1.28,4.56-2.4,2.57-2.27,6.1-7.38,5-11.76-.39-1.62.82-2.78.24-3.84-.6-1.76-2.41-2.45-3.36-3.84a65.13,65.13,0,0,0-11-12.24c-2.22-2-5.27-3-7.44-5Z" fill="none" fill-rule="evenodd"/>
  </g>
  <g id="logo" style="isolation: isolate">
    <path d="M184.32,112.8c3.65-.06,5.07,1.48,7.2,2.88,3.48,2.29,7,4.8,8.88,8.64.73,1.52.28,3,.72,4.8.36,1.51,1,5,.48,7.2-1.91,7.57-5.1,15.67-7.68,23.52-.52,1.59-.06,2.77-.48,4.32-.31,1.15-1.14,2.74-1.44,3.84-.52,1.92,1.56,2.49,1,4.8-.35,1.33-1.26,1.47-1.44,3.12H192c3.55,2.25,7.95-2.95,9.36-4.08.7-.56,1.74-.61,2.4-1.2s1.19-1.73,1.92-2.4A54.79,54.79,0,0,1,211,164.4l.72-1c1.5-.9,3.29-1.27,4.56-2.4,2.83-2.52,1.5-3.45,6.48-4.56a3.79,3.79,0,0,1,.24-1.92c2.08,2.34,3.76.29,6.48,1.68,1.49.76,3.32,3.56,4.56,4.8,3,3,10.64,7,10.8,12.24-4.37,4.1-9.69,7-14.88,10.32-4,2.57-7.84,5.82-11.76,8.64-3.51,2.52-5.4,6.38-10.56,6.72-2.46-3.61-8.38-4.5-12.24-6.72-4.35-2.51-8.86-5.21-13-7.92-2.47-1.63-5.13-2.54-7.68-4.08-.95-.57-1.61-1.86-2.4-2.64a54.16,54.16,0,0,1,1-12.48v-3.84c.29-1.16.67-3.64,1-4.8v-3.84c.66-2.62,1.23-5.95,1.92-8.64l.48-4.8c.82-3.16,2-7,2.88-10.08l.72-4.8a33.44,33.44,0,0,0,1.68-4.32c.56-2.17-.66-3.65.24-5.28C182.57,114,183.72,113.41,184.32,112.8Z" fill="none" fill-rule="evenodd"/>
  </g>
  <g id="shadow_Image" data-name="shadow Image">
    <image id="shadow_Image-2" data-name="shadow Image" width="2400" height="1200" transform="scale(0.24)" xlink:href="white-shoes1.png"/>
  </g>
</svg>
